<?xml version="1.0" standalone="no"?>
<!DOCTYPE svg PUBLIC "-//W3C//DTD SVG 20010904//EN"
 "http://www.w3.org/TR/2001/REC-SVG-20010904/DTD/svg10.dtd">
<svg version="1.0" xmlns="http://www.w3.org/2000/svg"
 width="194.000000pt" height="150.000000pt" viewBox="0 0 194.000000 150.000000"
 preserveAspectRatio="xMidYMid meet">

<g transform="translate(0.000000,150.000000) scale(0.100000,-0.100000)"
fill="#000000" stroke="none">
<path d="M650 1403 c0 -55 -8 -116 -20 -163 -11 -41 -20 -98 -20 -127 0 -46 4
-56 33 -85 18 -19 52 -40 75 -47 l42 -14 0 -119 c0 -111 -2 -121 -23 -142 -13
-13 -42 -26 -65 -30 -46 -7 -57 -30 -19 -40 29 -8 235 -8 265 0 37 10 26 33
-19 40 -23 4 -53 17 -68 30 -25 21 -26 27 -29 141 l-4 119 41 12 c53 16 97 55
111 97 12 36 6 78 -26 205 -8 30 -14 89 -14 132 l0 78 -130 0 -130 0 0 -87z"/>
<path d="M990 1196 c0 -19 7 -25 35 -30 56 -11 45 -35 -65 -138 -80 -74 -100
-99 -100 -120 0 -29 9 -35 27 -17 7 7 31 -22 80 -98 39 -59 76 -118 82 -130
11 -22 17 -23 151 -23 l140 0 0 25 c0 18 -5 25 -19 25 -11 0 -27 3 -35 6 -15
6 -219 294 -232 328 -7 19 120 109 187 131 41 14 49 21 49 41 l0 24 -150 0
-150 0 0 -24z"/>
<path d="M400 350 c0 -33 4 -60 10 -60 6 0 10 9 10 19 0 31 18 34 36 6 9 -14
23 -25 30 -25 19 0 18 6 -8 40 l-22 30 24 25 c30 31 6 34 -27 3 l-23 -21 0 21
c0 13 -6 22 -15 22 -12 0 -15 -13 -15 -60z"/>
<path d="M582 353 c3 -55 4 -58 31 -61 42 -5 57 13 57 69 0 27 -4 49 -10 49
-5 0 -10 -17 -10 -37 0 -46 -13 -68 -34 -60 -11 5 -16 19 -16 52 0 25 -5 45
-10 45 -7 0 -10 -22 -8 -57z"/>
<path d="M760 350 l0 -60 35 0 c19 0 35 5 35 10 0 6 -11 10 -25 10 -23 0 -25
3 -25 50 0 28 -4 50 -10 50 -6 0 -10 -27 -10 -60z"/>
<path d="M910 400 c0 -5 9 -10 20 -10 17 0 20 -7 20 -50 0 -27 5 -50 10 -50 6
0 10 23 10 50 0 38 4 50 15 50 8 0 15 5 15 10 0 6 -20 10 -45 10 -25 0 -45 -4
-45 -10z"/>
<path d="M1094 385 c-35 -54 18 -116 71 -81 17 11 25 25 25 46 0 58 -65 82
-96 35z m66 -14 c13 -25 13 -27 -6 -45 -22 -22 -33 -20 -46 9 -20 43 29 77 52
36z"/>
<path d="M1275 374 c15 -84 40 -110 52 -54 3 17 9 30 13 30 5 0 11 -13 15 -30
12 -54 35 -30 50 54 9 46 -11 49 -23 4 -10 -33 -11 -32 -27 17 -2 8 -9 15 -15
15 -6 0 -13 -7 -15 -15 -16 -49 -17 -50 -27 -17 -12 45 -32 42 -23 -4z"/>
<path d="M1490 350 l0 -60 45 0 c25 0 45 5 45 10 0 6 -16 10 -35 10 -24 0 -35
5 -35 15 0 10 10 15 30 15 17 0 30 5 30 10 0 6 -13 10 -30 10 -20 0 -30 5 -30
15 0 10 11 15 35 15 19 0 35 5 35 10 0 6 -20 10 -45 10 l-45 0 0 -60z"/>
<path d="M810 151 c0 -28 5 -51 10 -51 6 0 10 6 10 14 0 8 12 17 26 20 20 5
25 12 22 34 -2 22 -9 28 -35 30 l-33 3 0 -50z m50 14 c0 -8 -7 -15 -15 -15 -8
0 -15 7 -15 15 0 8 7 15 15 15 8 0 15 -7 15 -15z"/>
<path d="M900 150 c0 -27 5 -50 10 -50 6 0 10 23 10 50 0 28 -4 50 -10 50 -5
0 -10 -22 -10 -50z"/>
<path d="M944 153 c12 -48 32 -67 41 -39 16 50 17 51 27 19 14 -54 32 -40 52
40 5 22 3 28 -6 25 -7 -3 -16 -18 -19 -34 l-6 -29 -8 33 c-9 40 -34 42 -41 2
-7 -34 -24 -30 -24 6 0 14 -6 24 -14 24 -12 0 -12 -8 -2 -47z"/>
<path d="M1088 150 c-14 -42 -14 -50 -2 -50 8 0 14 5 14 10 0 6 9 10 20 10 11
0 20 -4 20 -10 0 -5 7 -10 15 -10 12 0 12 7 -4 48 -25 64 -43 65 -63 2z m42
-1 c0 -5 -4 -9 -10 -9 -5 0 -10 7 -10 16 0 8 5 12 10 9 6 -3 10 -10 10 -16z"/>
</g>
</svg>
